<mxfile host="app.diagrams.net" agent="Mozilla/5.0 (Windows NT 10.0; Win64; x64) AppleWebKit/537.36 (KHTML, like Gecko) Chrome/131.0.0.0 Safari/537.36 Edg/131.0.0.0" version="26.1.1">
  <diagram name="Página-1" id="cA90oQc7HoayKzvxWQNc">
    <mxGraphModel dx="763" dy="620" grid="1" gridSize="10" guides="1" tooltips="1" connect="1" arrows="1" fold="1" page="0" pageScale="1" pageWidth="827" pageHeight="1169" math="0" shadow="0">
      <root>
        <mxCell id="0" />
        <mxCell id="1" parent="0" />
        <mxCell id="AROoX97vGcAivF64sG4n-3" value="" style="edgeStyle=none;curved=1;rounded=0;orthogonalLoop=1;jettySize=auto;html=1;fontSize=12;startSize=8;endSize=8;" parent="1" source="AROoX97vGcAivF64sG4n-1" target="AROoX97vGcAivF64sG4n-2" edge="1">
          <mxGeometry relative="1" as="geometry" />
        </mxCell>
        <mxCell id="AROoX97vGcAivF64sG4n-1" value="Inicio" style="ellipse;whiteSpace=wrap;html=1;" parent="1" vertex="1">
          <mxGeometry x="140" y="160" width="120" height="80" as="geometry" />
        </mxCell>
        <mxCell id="AROoX97vGcAivF64sG4n-9" value="" style="edgeStyle=none;curved=1;rounded=0;orthogonalLoop=1;jettySize=auto;html=1;fontSize=12;startSize=8;endSize=8;" parent="1" source="AROoX97vGcAivF64sG4n-2" target="AROoX97vGcAivF64sG4n-5" edge="1">
          <mxGeometry relative="1" as="geometry" />
        </mxCell>
        <mxCell id="AROoX97vGcAivF64sG4n-2" value="recebe &quot;Idade&quot;&lt;div&gt;recebe &quot;Sexo&quot;&lt;/div&gt;&lt;div&gt;recebe &quot;Nome&quot;&lt;/div&gt;" style="shape=parallelogram;perimeter=parallelogramPerimeter;whiteSpace=wrap;html=1;fixedSize=1;" parent="1" vertex="1">
          <mxGeometry x="140" y="270" width="120" height="60" as="geometry" />
        </mxCell>
        <mxCell id="AROoX97vGcAivF64sG4n-7" value="" style="edgeStyle=none;curved=1;rounded=0;orthogonalLoop=1;jettySize=auto;html=1;fontSize=12;startSize=8;endSize=8;" parent="1" source="AROoX97vGcAivF64sG4n-5" edge="1">
          <mxGeometry relative="1" as="geometry">
            <mxPoint x="90" y="410" as="targetPoint" />
          </mxGeometry>
        </mxCell>
        <mxCell id="AROoX97vGcAivF64sG4n-11" value="" style="edgeStyle=none;curved=1;rounded=0;orthogonalLoop=1;jettySize=auto;html=1;fontSize=12;startSize=8;endSize=8;" parent="1" source="AROoX97vGcAivF64sG4n-5" target="AROoX97vGcAivF64sG4n-10" edge="1">
          <mxGeometry relative="1" as="geometry" />
        </mxCell>
        <mxCell id="AROoX97vGcAivF64sG4n-5" value="Idade&amp;gt;25" style="rhombus;whiteSpace=wrap;html=1;" parent="1" vertex="1">
          <mxGeometry x="160" y="370" width="80" height="80" as="geometry" />
        </mxCell>
        <mxCell id="AROoX97vGcAivF64sG4n-8" value="Não" style="text;html=1;align=center;verticalAlign=middle;resizable=0;points=[];autosize=1;strokeColor=none;fillColor=none;fontSize=16;" parent="1" vertex="1">
          <mxGeometry x="110" y="380" width="50" height="30" as="geometry" />
        </mxCell>
        <mxCell id="AROoX97vGcAivF64sG4n-13" style="edgeStyle=none;curved=0;rounded=0;orthogonalLoop=1;jettySize=auto;html=1;fontSize=12;startSize=8;endSize=8;entryX=0.5;entryY=1;entryDx=0;entryDy=0;" parent="1" source="AROoX97vGcAivF64sG4n-10" edge="1">
          <mxGeometry relative="1" as="geometry">
            <mxPoint x="30" y="450" as="targetPoint" />
            <Array as="points">
              <mxPoint x="30" y="520" />
            </Array>
          </mxGeometry>
        </mxCell>
        <mxCell id="AROoX97vGcAivF64sG4n-15" value="" style="edgeStyle=none;curved=1;rounded=0;orthogonalLoop=1;jettySize=auto;html=1;fontSize=12;startSize=8;endSize=8;" parent="1" source="AROoX97vGcAivF64sG4n-10" target="AROoX97vGcAivF64sG4n-14" edge="1">
          <mxGeometry relative="1" as="geometry" />
        </mxCell>
        <mxCell id="AROoX97vGcAivF64sG4n-10" value="&quot;Sexo&quot; = Feminino?" style="rhombus;whiteSpace=wrap;html=1;" parent="1" vertex="1">
          <mxGeometry x="160" y="480" width="80" height="80" as="geometry" />
        </mxCell>
        <mxCell id="AROoX97vGcAivF64sG4n-17" value="" style="edgeStyle=none;curved=1;rounded=0;orthogonalLoop=1;jettySize=auto;html=1;fontSize=12;startSize=8;endSize=8;" parent="1" source="AROoX97vGcAivF64sG4n-14" target="AROoX97vGcAivF64sG4n-16" edge="1">
          <mxGeometry relative="1" as="geometry" />
        </mxCell>
        <mxCell id="AROoX97vGcAivF64sG4n-14" value="Imprime &quot;nome&quot;, &quot;idade&quot;, &quot;sexo&quot;&lt;div&gt;exibe mensagem: Seu perfil foi selecionado&lt;/div&gt;" style="shape=document;whiteSpace=wrap;html=1;boundedLbl=1;" parent="1" vertex="1">
          <mxGeometry x="290" y="475" width="170" height="90" as="geometry" />
        </mxCell>
        <mxCell id="AROoX97vGcAivF64sG4n-16" value="Fim" style="ellipse;whiteSpace=wrap;html=1;" parent="1" vertex="1">
          <mxGeometry x="315" y="355" width="120" height="80" as="geometry" />
        </mxCell>
        <mxCell id="GYNxWWA9OC6DE7Ojc7Ld-6" style="edgeStyle=none;curved=0;rounded=0;orthogonalLoop=1;jettySize=auto;html=1;exitX=0;exitY=0.5;exitDx=0;exitDy=0;fontSize=12;startSize=8;endSize=8;entryX=1;entryY=0.5;entryDx=0;entryDy=0;" edge="1" parent="1" source="GYNxWWA9OC6DE7Ojc7Ld-1" target="AROoX97vGcAivF64sG4n-16">
          <mxGeometry relative="1" as="geometry">
            <mxPoint x="520" y="400" as="targetPoint" />
            <Array as="points">
              <mxPoint x="-80" y="420" />
              <mxPoint x="-80" y="620" />
              <mxPoint x="520" y="620" />
              <mxPoint x="520" y="395" />
            </Array>
          </mxGeometry>
        </mxCell>
        <mxCell id="GYNxWWA9OC6DE7Ojc7Ld-1" value="perfil não selecionado" style="shape=document;whiteSpace=wrap;html=1;boundedLbl=1;" vertex="1" parent="1">
          <mxGeometry x="-30" y="380" width="120" height="80" as="geometry" />
        </mxCell>
        <mxCell id="GYNxWWA9OC6DE7Ojc7Ld-2" value="Não" style="text;html=1;align=center;verticalAlign=middle;resizable=0;points=[];autosize=1;strokeColor=none;fillColor=none;fontSize=16;" vertex="1" parent="1">
          <mxGeometry x="109" y="491" width="50" height="30" as="geometry" />
        </mxCell>
        <mxCell id="GYNxWWA9OC6DE7Ojc7Ld-3" value="Sim" style="text;html=1;align=center;verticalAlign=middle;resizable=0;points=[];autosize=1;strokeColor=none;fillColor=none;fontSize=16;" vertex="1" parent="1">
          <mxGeometry x="229" y="491" width="50" height="30" as="geometry" />
        </mxCell>
        <mxCell id="GYNxWWA9OC6DE7Ojc7Ld-5" value="Sim" style="text;html=1;align=center;verticalAlign=middle;resizable=0;points=[];autosize=1;strokeColor=none;fillColor=none;fontSize=16;" vertex="1" parent="1">
          <mxGeometry x="200" y="435" width="50" height="30" as="geometry" />
        </mxCell>
      </root>
    </mxGraphModel>
  </diagram>
</mxfile>
